<svg width="141" height="138" viewBox="0 0 141 138" fill="none" xmlns="http://www.w3.org/2000/svg">
<path d="M25.4044 96.1583V50.0791M115.917 96.1583V50.0791M115.917 50.0791V4L70.6607 49.4648L33.9664 12.6014M115.917 50.0791H25.4044M25.4044 50.0791V4L33.9664 12.6014M33.9664 96.1583V12.6014M107.53 96.1583V12.6014" stroke="white" stroke-width="3"/>
<path d="M0.719116 107.678H140.602" stroke="white" stroke-width="3"/>
<path d="M2.23295 118.818H3.70455L7.16477 127.27H7.28409L10.7443 118.818H12.2159V129H11.0625V121.264H10.9631L7.78125 129H6.66761L3.4858 121.264H3.38636V129H2.23295V118.818ZM15.1056 129H13.813L17.5517 118.818H18.8244L22.563 129H21.2704L18.2278 120.429H18.1483L15.1056 129ZM15.5829 125.023H20.7931V126.116H15.5829V125.023ZM24.149 129V118.818H27.5893C28.3848 118.818 29.0377 118.954 29.5481 119.226C30.0585 119.494 30.4364 119.864 30.6816 120.335C30.9269 120.805 31.0495 121.34 31.0495 121.94C31.0495 122.54 30.9269 123.072 30.6816 123.536C30.4364 124 30.0602 124.365 29.5531 124.63C29.046 124.892 28.398 125.023 27.6092 125.023H24.8251V123.909H27.5694C28.113 123.909 28.5505 123.83 28.8819 123.67C29.2167 123.511 29.4586 123.286 29.6078 122.994C29.7602 122.699 29.8365 122.348 29.8365 121.94C29.8365 121.533 29.7602 121.176 29.6078 120.871C29.4553 120.567 29.2117 120.331 28.877 120.165C28.5422 119.996 28.0997 119.912 27.5495 119.912H25.3819V129H24.149ZM28.9416 124.426L31.4473 129H30.0154L27.5495 124.426H28.9416ZM34.337 118.818V129H33.104V118.818H34.337ZM37.2267 129H35.9341L39.6728 118.818H40.9455L44.6841 129H43.3915L40.3489 120.429H40.2694L37.2267 129ZM37.704 125.023H42.9142V126.116H37.704V125.023ZM54.3439 118.818V129H53.1507L47.6025 121.006H47.503V129H46.2701V118.818H47.4632L53.0314 126.832H53.1309V118.818H54.3439ZM57.2287 129H55.9361L59.6747 118.818H60.9474L64.6861 129H63.3935L60.3509 120.429H60.2713L57.2287 129ZM57.706 125.023H62.9162V126.116H57.706V125.023ZM73.3516 129H70.2095V118.818H73.4908C74.4785 118.818 75.3236 119.022 76.0263 119.43C76.7289 119.834 77.2675 120.416 77.642 121.175C78.0166 121.93 78.2038 122.835 78.2038 123.889C78.2038 124.95 78.0149 125.863 77.6371 126.629C77.2592 127.391 76.709 127.978 75.9865 128.388C75.264 128.796 74.3857 129 73.3516 129ZM71.4425 127.906H73.272C74.1139 127.906 74.8116 127.744 75.3651 127.419C75.9186 127.094 76.3312 126.632 76.603 126.032C76.8748 125.432 77.0107 124.718 77.0107 123.889C77.0107 123.067 76.8764 122.36 76.608 121.766C76.3395 121.17 75.9384 120.712 75.4048 120.394C74.8712 120.073 74.2067 119.912 73.4112 119.912H71.4425V127.906ZM80.272 129V118.818H86.4169V119.912H81.505V123.352H86.0987V124.446H81.505V127.906H86.4964V129H80.272ZM92.5767 129V118.818H96.017C96.8158 118.818 97.4688 118.962 97.9759 119.251C98.4863 119.536 98.8641 119.922 99.1094 120.409C99.3546 120.896 99.4773 121.44 99.4773 122.04C99.4773 122.64 99.3546 123.185 99.1094 123.675C98.8674 124.166 98.4929 124.557 97.9858 124.849C97.4787 125.137 96.8291 125.281 96.0369 125.281H93.571V124.188H95.9972C96.544 124.188 96.9832 124.093 97.3146 123.904C97.6461 123.715 97.8864 123.46 98.0355 123.138C98.188 122.814 98.2642 122.447 98.2642 122.04C98.2642 121.632 98.188 121.268 98.0355 120.946C97.8864 120.625 97.6444 120.373 97.3097 120.19C96.9749 120.005 96.5308 119.912 95.9773 119.912H93.8097V129H92.5767ZM100.842 129H99.5494L103.288 118.818H104.561L108.299 129H107.007L103.964 120.429H103.885L100.842 129ZM101.319 125.023H106.529V126.116H101.319V125.023ZM116.567 118.818H117.8V125.56C117.8 126.256 117.636 126.877 117.308 127.424C116.983 127.968 116.524 128.397 115.931 128.712C115.337 129.023 114.641 129.179 113.843 129.179C113.044 129.179 112.348 129.023 111.755 128.712C111.161 128.397 110.701 127.968 110.373 127.424C110.048 126.877 109.885 126.256 109.885 125.56V118.818H111.118V125.46C111.118 125.957 111.228 126.4 111.446 126.788C111.665 127.172 111.977 127.475 112.381 127.697C112.789 127.916 113.276 128.026 113.843 128.026C114.409 128.026 114.897 127.916 115.304 127.697C115.712 127.475 116.024 127.172 116.239 126.788C116.458 126.4 116.567 125.957 116.567 125.46V118.818ZM120.262 129V118.818H121.495V127.906H126.228V129H120.262ZM129.197 129H127.905L131.643 118.818H132.916L136.655 129H135.362L132.32 120.429H132.24L129.197 129ZM129.675 125.023H134.885V126.116H129.675V125.023Z" fill="white"/>
</svg>
